<mxfile host="app.diagrams.net" agent="Mozilla/5.0 (Windows NT 10.0; Win64; x64) AppleWebKit/537.36 (KHTML, like Gecko) Chrome/138.0.0.0 Safari/537.36" version="28.0.6">
  <diagram name="Page-1" id="S6jNXZhzO-77WSnkrmg4">
    <mxGraphModel dx="1042" dy="562" grid="1" gridSize="10" guides="1" tooltips="1" connect="1" arrows="1" fold="1" page="1" pageScale="1" pageWidth="850" pageHeight="1100" math="0" shadow="0">
      <root>
        <mxCell id="0" />
        <mxCell id="1" parent="0" />
        <mxCell id="Rj_fb2V1QzrYQEzQjXPc-3" value="" style="edgeStyle=orthogonalEdgeStyle;rounded=0;orthogonalLoop=1;jettySize=auto;html=1;" edge="1" parent="1" source="Rj_fb2V1QzrYQEzQjXPc-1" target="Rj_fb2V1QzrYQEzQjXPc-2">
          <mxGeometry relative="1" as="geometry" />
        </mxCell>
        <mxCell id="Rj_fb2V1QzrYQEzQjXPc-1" value="&lt;h1&gt;شروع&lt;/h1&gt;" style="ellipse;whiteSpace=wrap;html=1;fillColor=#d5e8d4;strokeColor=#82b366;" vertex="1" parent="1">
          <mxGeometry x="350" width="120" height="80" as="geometry" />
        </mxCell>
        <mxCell id="Rj_fb2V1QzrYQEzQjXPc-5" value="" style="edgeStyle=orthogonalEdgeStyle;rounded=0;orthogonalLoop=1;jettySize=auto;html=1;" edge="1" parent="1" source="Rj_fb2V1QzrYQEzQjXPc-2" target="Rj_fb2V1QzrYQEzQjXPc-4">
          <mxGeometry relative="1" as="geometry" />
        </mxCell>
        <mxCell id="Rj_fb2V1QzrYQEzQjXPc-2" value="&lt;h1&gt;تعیین مسیر فایل&lt;/h1&gt;" style="rounded=1;whiteSpace=wrap;html=1;" vertex="1" parent="1">
          <mxGeometry x="320" y="110" width="180" height="50" as="geometry" />
        </mxCell>
        <mxCell id="Rj_fb2V1QzrYQEzQjXPc-7" value="" style="edgeStyle=orthogonalEdgeStyle;rounded=0;orthogonalLoop=1;jettySize=auto;html=1;" edge="1" parent="1" source="Rj_fb2V1QzrYQEzQjXPc-4" target="Rj_fb2V1QzrYQEzQjXPc-6">
          <mxGeometry relative="1" as="geometry" />
        </mxCell>
        <mxCell id="Rj_fb2V1QzrYQEzQjXPc-4" value="&lt;h1&gt;خواندن فایل جیسون&lt;/h1&gt;" style="whiteSpace=wrap;html=1;rounded=1;" vertex="1" parent="1">
          <mxGeometry x="320" y="200" width="180" height="45" as="geometry" />
        </mxCell>
        <mxCell id="Rj_fb2V1QzrYQEzQjXPc-11" value="" style="edgeStyle=orthogonalEdgeStyle;rounded=0;orthogonalLoop=1;jettySize=auto;html=1;" edge="1" parent="1" source="Rj_fb2V1QzrYQEzQjXPc-6" target="Rj_fb2V1QzrYQEzQjXPc-10">
          <mxGeometry relative="1" as="geometry" />
        </mxCell>
        <mxCell id="Rj_fb2V1QzrYQEzQjXPc-6" value="&lt;h1&gt;فایل یافت شد؟&lt;/h1&gt;" style="rhombus;whiteSpace=wrap;html=1;rounded=1;" vertex="1" parent="1">
          <mxGeometry x="330" y="270" width="160" height="117.5" as="geometry" />
        </mxCell>
        <mxCell id="Rj_fb2V1QzrYQEzQjXPc-8" value="&lt;h1&gt;xخیر فایل یافت نشدx&lt;/h1&gt;" style="whiteSpace=wrap;html=1;rounded=1;" vertex="1" parent="1">
          <mxGeometry x="130" y="370" width="130" height="50" as="geometry" />
        </mxCell>
        <mxCell id="Rj_fb2V1QzrYQEzQjXPc-15" value="" style="edgeStyle=orthogonalEdgeStyle;rounded=0;orthogonalLoop=1;jettySize=auto;html=1;" edge="1" parent="1" source="Rj_fb2V1QzrYQEzQjXPc-10" target="Rj_fb2V1QzrYQEzQjXPc-14">
          <mxGeometry relative="1" as="geometry" />
        </mxCell>
        <mxCell id="Rj_fb2V1QzrYQEzQjXPc-16" value="" style="edgeStyle=orthogonalEdgeStyle;rounded=0;orthogonalLoop=1;jettySize=auto;html=1;" edge="1" parent="1" source="Rj_fb2V1QzrYQEzQjXPc-10" target="Rj_fb2V1QzrYQEzQjXPc-14">
          <mxGeometry relative="1" as="geometry" />
        </mxCell>
        <mxCell id="Rj_fb2V1QzrYQEzQjXPc-18" value="" style="edgeStyle=orthogonalEdgeStyle;rounded=0;orthogonalLoop=1;jettySize=auto;html=1;" edge="1" parent="1" source="Rj_fb2V1QzrYQEzQjXPc-10" target="Rj_fb2V1QzrYQEzQjXPc-17">
          <mxGeometry relative="1" as="geometry" />
        </mxCell>
        <mxCell id="Rj_fb2V1QzrYQEzQjXPc-20" value="" style="edgeStyle=orthogonalEdgeStyle;rounded=0;orthogonalLoop=1;jettySize=auto;html=1;" edge="1" parent="1" source="Rj_fb2V1QzrYQEzQjXPc-10" target="Rj_fb2V1QzrYQEzQjXPc-19">
          <mxGeometry relative="1" as="geometry" />
        </mxCell>
        <mxCell id="Rj_fb2V1QzrYQEzQjXPc-10" value="&lt;h1&gt;تحلیل فایل جیسون&lt;/h1&gt;" style="whiteSpace=wrap;html=1;rounded=1;" vertex="1" parent="1">
          <mxGeometry x="320" y="450" width="180" height="40" as="geometry" />
        </mxCell>
        <mxCell id="Rj_fb2V1QzrYQEzQjXPc-9" value="" style="edgeStyle=orthogonalEdgeStyle;rounded=0;orthogonalLoop=1;jettySize=auto;html=1;" edge="1" parent="1" source="Rj_fb2V1QzrYQEzQjXPc-6" target="Rj_fb2V1QzrYQEzQjXPc-8">
          <mxGeometry relative="1" as="geometry">
            <Array as="points">
              <mxPoint x="190" y="310" />
            </Array>
          </mxGeometry>
        </mxCell>
        <mxCell id="Rj_fb2V1QzrYQEzQjXPc-12" value="&lt;h1&gt;خیر&lt;/h1&gt;" style="text;html=1;align=center;verticalAlign=middle;resizable=0;points=[];autosize=1;strokeColor=none;fillColor=none;" vertex="1" parent="1">
          <mxGeometry x="245" y="258" width="50" height="70" as="geometry" />
        </mxCell>
        <mxCell id="Rj_fb2V1QzrYQEzQjXPc-13" value="&lt;h1&gt;بله&lt;/h1&gt;" style="text;html=1;align=center;verticalAlign=middle;resizable=0;points=[];autosize=1;strokeColor=none;fillColor=none;" vertex="1" parent="1">
          <mxGeometry x="410" y="378" width="50" height="70" as="geometry" />
        </mxCell>
        <mxCell id="Rj_fb2V1QzrYQEzQjXPc-22" style="edgeStyle=orthogonalEdgeStyle;rounded=0;orthogonalLoop=1;jettySize=auto;html=1;" edge="1" parent="1" source="Rj_fb2V1QzrYQEzQjXPc-14">
          <mxGeometry relative="1" as="geometry">
            <mxPoint x="410" y="770" as="targetPoint" />
            <Array as="points">
              <mxPoint x="410" y="695" />
              <mxPoint x="411" y="695" />
            </Array>
          </mxGeometry>
        </mxCell>
        <mxCell id="Rj_fb2V1QzrYQEzQjXPc-14" value="&lt;h1&gt;تحلیل داده های عددی&lt;/h1&gt;" style="rounded=1;whiteSpace=wrap;html=1;" vertex="1" parent="1">
          <mxGeometry x="350" y="560" width="120" height="60" as="geometry" />
        </mxCell>
        <mxCell id="Rj_fb2V1QzrYQEzQjXPc-21" style="edgeStyle=orthogonalEdgeStyle;rounded=0;orthogonalLoop=1;jettySize=auto;html=1;" edge="1" parent="1">
          <mxGeometry relative="1" as="geometry">
            <mxPoint x="410" y="780" as="targetPoint" />
            <mxPoint x="680" y="620" as="sourcePoint" />
            <Array as="points">
              <mxPoint x="680" y="670" />
              <mxPoint x="410" y="670" />
              <mxPoint x="410" y="780" />
            </Array>
          </mxGeometry>
        </mxCell>
        <mxCell id="Rj_fb2V1QzrYQEzQjXPc-17" value="&lt;h1&gt;تحلیل ساختار کلی فایل&lt;/h1&gt;" style="rounded=1;whiteSpace=wrap;html=1;" vertex="1" parent="1">
          <mxGeometry x="610" y="560" width="120" height="60" as="geometry" />
        </mxCell>
        <mxCell id="Rj_fb2V1QzrYQEzQjXPc-23" style="edgeStyle=orthogonalEdgeStyle;rounded=0;orthogonalLoop=1;jettySize=auto;html=1;" edge="1" parent="1" source="Rj_fb2V1QzrYQEzQjXPc-19">
          <mxGeometry relative="1" as="geometry">
            <mxPoint x="410" y="790" as="targetPoint" />
            <Array as="points">
              <mxPoint x="160" y="670" />
              <mxPoint x="411" y="670" />
            </Array>
          </mxGeometry>
        </mxCell>
        <mxCell id="Rj_fb2V1QzrYQEzQjXPc-19" value="&lt;h1&gt;تحلیل رشته ها&amp;nbsp;&lt;/h1&gt;" style="whiteSpace=wrap;html=1;rounded=1;" vertex="1" parent="1">
          <mxGeometry x="100" y="560" width="120" height="60" as="geometry" />
        </mxCell>
        <mxCell id="Rj_fb2V1QzrYQEzQjXPc-25" value="&lt;h1&gt;پایان&lt;/h1&gt;" style="ellipse;whiteSpace=wrap;html=1;fillColor=#d5e8d4;strokeColor=#82b366;" vertex="1" parent="1">
          <mxGeometry x="350" y="790" width="120" height="80" as="geometry" />
        </mxCell>
      </root>
    </mxGraphModel>
  </diagram>
</mxfile>
